<svg id="visual" viewBox="0 0 900 600" width="900" height="600" xmlns="http://www.w3.org/2000/svg" xmlns:xlink="http://www.w3.org/1999/xlink" version="1.1"><g stroke-width="1" stroke-linejoin="bevel"><path d="M425 283L504 327L489 220Z" fill="#2f5469" stroke="#2f5469"></path><path d="M425 283L438 383L504 327Z" fill="#2d3c46" stroke="#2d3c46"></path><path d="M489 220L420 165L425 283Z" fill="#25769b" stroke="#25769b"></path><path d="M438 383L528 394L504 327Z" fill="#25769b" stroke="#25769b"></path><path d="M504 327L611 287L489 220Z" fill="#252525" stroke="#252525"></path><path d="M528 394L611 287L504 327Z" fill="#2f5469" stroke="#2f5469"></path><path d="M489 220L469 108L420 165Z" fill="#2c6582" stroke="#2c6582"></path><path d="M611 287L596 206L489 220Z" fill="#25769b" stroke="#25769b"></path><path d="M561 79L469 108L489 220Z" fill="#2e5c75" stroke="#2e5c75"></path><path d="M515 478L584 412L528 394Z" fill="#252525" stroke="#252525"></path><path d="M528 394L584 412L611 287Z" fill="#282c30" stroke="#282c30"></path><path d="M469 108L377 135L420 165Z" fill="#2e5c75" stroke="#2e5c75"></path><path d="M294 226L290 291L425 283Z" fill="#2f4c5d" stroke="#2f4c5d"></path><path d="M425 283L306 406L438 383Z" fill="#2f4c5d" stroke="#2f4c5d"></path><path d="M681 376L664 271L611 287Z" fill="#282c30" stroke="#282c30"></path><path d="M611 287L664 271L596 206Z" fill="#2b343a" stroke="#2b343a"></path><path d="M294 226L425 283L420 165Z" fill="#2d3c46" stroke="#2d3c46"></path><path d="M377 135L294 226L420 165Z" fill="#2b343a" stroke="#2b343a"></path><path d="M397 474L515 478L438 383Z" fill="#2e4451" stroke="#2e4451"></path><path d="M438 383L515 478L528 394Z" fill="#2f5469" stroke="#2f5469"></path><path d="M596 206L561 79L489 220Z" fill="#2f5469" stroke="#2f5469"></path><path d="M363 0L292 101L377 135Z" fill="#2a6d8e" stroke="#2a6d8e"></path><path d="M688 162L561 79L596 206Z" fill="#2f4c5d" stroke="#2f4c5d"></path><path d="M306 406L397 474L438 383Z" fill="#2b343a" stroke="#2b343a"></path><path d="M290 291L306 406L425 283Z" fill="#2f5469" stroke="#2f5469"></path><path d="M722 507L681 376L584 412Z" fill="#252525" stroke="#252525"></path><path d="M584 412L681 376L611 287Z" fill="#2b343a" stroke="#2b343a"></path><path d="M788 232L688 162L664 271Z" fill="#2e4451" stroke="#2e4451"></path><path d="M664 271L688 162L596 206Z" fill="#2d3c46" stroke="#2d3c46"></path><path d="M526 600L569 499L515 478Z" fill="#2e4451" stroke="#2e4451"></path><path d="M515 478L569 499L584 412Z" fill="#2a6d8e" stroke="#2a6d8e"></path><path d="M363 0L377 135L469 108Z" fill="#2e5c75" stroke="#2e5c75"></path><path d="M377 135L292 101L294 226Z" fill="#2f5469" stroke="#2f5469"></path><path d="M294 226L214 223L290 291Z" fill="#252525" stroke="#252525"></path><path d="M306 406L305 472L397 474Z" fill="#2c6582" stroke="#2c6582"></path><path d="M420 600L526 600L515 478Z" fill="#2d3c46" stroke="#2d3c46"></path><path d="M204 393L305 472L306 406Z" fill="#282c30" stroke="#282c30"></path><path d="M292 101L214 223L294 226Z" fill="#2d3c46" stroke="#2d3c46"></path><path d="M290 291L204 393L306 406Z" fill="#282c30" stroke="#282c30"></path><path d="M575 0L511 0L561 79Z" fill="#2c6582" stroke="#2c6582"></path><path d="M561 79L511 0L469 108Z" fill="#282c30" stroke="#282c30"></path><path d="M214 223L203 269L290 291Z" fill="#2b343a" stroke="#2b343a"></path><path d="M688 162L684 74L561 79Z" fill="#282c30" stroke="#282c30"></path><path d="M684 74L575 0L561 79Z" fill="#252525" stroke="#252525"></path><path d="M511 0L363 0L469 108Z" fill="#2b343a" stroke="#2b343a"></path><path d="M203 269L204 393L290 291Z" fill="#25769b" stroke="#25769b"></path><path d="M806 388L789 289L681 376Z" fill="#282c30" stroke="#282c30"></path><path d="M681 376L789 289L664 271Z" fill="#2f5469" stroke="#2f5469"></path><path d="M831 67L771 0L684 74Z" fill="#2a6d8e" stroke="#2a6d8e"></path><path d="M789 289L788 232L664 271Z" fill="#2c6582" stroke="#2c6582"></path><path d="M420 600L515 478L397 474Z" fill="#2b343a" stroke="#2b343a"></path><path d="M569 499L722 507L584 412Z" fill="#25769b" stroke="#25769b"></path><path d="M333 600L397 474L305 472Z" fill="#2e5c75" stroke="#2e5c75"></path><path d="M333 600L420 600L397 474Z" fill="#25769b" stroke="#25769b"></path><path d="M526 600L560 600L569 499Z" fill="#2a6d8e" stroke="#2a6d8e"></path><path d="M560 600L722 507L569 499Z" fill="#2b343a" stroke="#2b343a"></path><path d="M363 0L283 0L292 101Z" fill="#252525" stroke="#252525"></path><path d="M292 101L179 61L214 223Z" fill="#252525" stroke="#252525"></path><path d="M791 472L806 388L681 376Z" fill="#2f4c5d" stroke="#2f4c5d"></path><path d="M900 100L831 67L788 232Z" fill="#25769b" stroke="#25769b"></path><path d="M771 0L701 0L684 74Z" fill="#252525" stroke="#252525"></path><path d="M684 74L701 0L575 0Z" fill="#2d3c46" stroke="#2d3c46"></path><path d="M194 506L333 600L305 472Z" fill="#25769b" stroke="#25769b"></path><path d="M118 332L132 389L204 393Z" fill="#282c30" stroke="#282c30"></path><path d="M204 393L194 506L305 472Z" fill="#2e5c75" stroke="#2e5c75"></path><path d="M118 332L204 393L203 269Z" fill="#252525" stroke="#252525"></path><path d="M118 332L203 269L106 172Z" fill="#282c30" stroke="#282c30"></path><path d="M813 600L791 472L722 507Z" fill="#252525" stroke="#252525"></path><path d="M722 507L791 472L681 376Z" fill="#2a6d8e" stroke="#2a6d8e"></path><path d="M106 172L203 269L214 223Z" fill="#2f4c5d" stroke="#2f4c5d"></path><path d="M132 389L194 506L204 393Z" fill="#25769b" stroke="#25769b"></path><path d="M283 0L235 0L292 101Z" fill="#2c6582" stroke="#2c6582"></path><path d="M235 0L179 61L292 101Z" fill="#25769b" stroke="#25769b"></path><path d="M124 104L106 172L214 223Z" fill="#2a6d8e" stroke="#2a6d8e"></path><path d="M101 0L124 104L179 61Z" fill="#2b343a" stroke="#2b343a"></path><path d="M179 61L124 104L214 223Z" fill="#2c6582" stroke="#2c6582"></path><path d="M831 67L684 74L688 162Z" fill="#2e4451" stroke="#2e4451"></path><path d="M831 67L688 162L788 232Z" fill="#2b343a" stroke="#2b343a"></path><path d="M900 292L788 232L789 289Z" fill="#2f4c5d" stroke="#2f4c5d"></path><path d="M560 600L728 600L722 507Z" fill="#2d3c46" stroke="#2d3c46"></path><path d="M900 400L806 388L791 472Z" fill="#2f4c5d" stroke="#2f4c5d"></path><path d="M900 400L900 292L806 388Z" fill="#2f5469" stroke="#2f5469"></path><path d="M806 388L900 292L789 289Z" fill="#282c30" stroke="#282c30"></path><path d="M900 292L900 220L788 232Z" fill="#2d3c46" stroke="#2d3c46"></path><path d="M900 503L900 400L791 472Z" fill="#2c6582" stroke="#2c6582"></path><path d="M900 220L900 100L788 232Z" fill="#25769b" stroke="#25769b"></path><path d="M831 67L900 0L771 0Z" fill="#282c30" stroke="#282c30"></path><path d="M125 600L160 600L194 506Z" fill="#25769b" stroke="#25769b"></path><path d="M194 506L160 600L333 600Z" fill="#2c6582" stroke="#2c6582"></path><path d="M68 514L194 506L132 389Z" fill="#2b343a" stroke="#2b343a"></path><path d="M728 600L813 600L722 507Z" fill="#2a6d8e" stroke="#2a6d8e"></path><path d="M235 0L101 0L179 61Z" fill="#2e4451" stroke="#2e4451"></path><path d="M0 207L0 262L106 172Z" fill="#25769b" stroke="#25769b"></path><path d="M0 422L132 389L118 332Z" fill="#2f5469" stroke="#2f5469"></path><path d="M0 422L68 514L132 389Z" fill="#2d3c46" stroke="#2d3c46"></path><path d="M0 262L118 332L106 172Z" fill="#2b343a" stroke="#2b343a"></path><path d="M813 600L900 503L791 472Z" fill="#2f5469" stroke="#2f5469"></path><path d="M0 207L106 172L0 122Z" fill="#2c6582" stroke="#2c6582"></path><path d="M68 514L125 600L194 506Z" fill="#2f5469" stroke="#2f5469"></path><path d="M0 122L106 172L124 104Z" fill="#252525" stroke="#252525"></path><path d="M900 100L900 0L831 67Z" fill="#2b343a" stroke="#2b343a"></path><path d="M0 262L0 422L118 332Z" fill="#2f4c5d" stroke="#2f4c5d"></path><path d="M68 514L0 600L125 600Z" fill="#25769b" stroke="#25769b"></path><path d="M101 0L0 122L124 104Z" fill="#2f5469" stroke="#2f5469"></path><path d="M0 422L0 482L68 514Z" fill="#2e5c75" stroke="#2e5c75"></path><path d="M813 600L900 600L900 503Z" fill="#2e4451" stroke="#2e4451"></path><path d="M101 0L0 0L0 122Z" fill="#2e5c75" stroke="#2e5c75"></path><path d="M0 482L0 600L68 514Z" fill="#2c6582" stroke="#2c6582"></path></g></svg>